# xmcd
#
# Track frame offsets: 
#        150
#        21380
#        31782
#        49280
#        64605
#        108787
#        131972
#        150130
#        170032
#        184325
#        212950
#        243934
#        264882
#        295957
#
# Disc length: 4339 seconds
#
# Revision: 0
# Processed by: cddbd v1.5.2PL0 Copyright (c) Steve Scherf et al.
# Submitted via: ExactAudioCopyFreeDBPlugin 1.0
#
DISCID=c510f10e
DTITLE=Sugar Blue - Another Man Done Gone
DYEAR=1997
DGENRE=Blues
TTITLE0=Cold Blooded Man
TTITLE1=Another Man Done Gone
TTITLE2=Don't Start Me Talkin
TTITLE3=Pontiac Blues
TTITLE4=Devil Woman
TTITLE5=Help Me
TTITLE6=Key To The Highway
TTITLE7=That's Allright
TTITLE8=Shed No Tears
TTITLE9=Begging The Girl To Go
TTITLE10=Dark And Hungry
TTITLE11=War Zone
TTITLE12=Who's Been Talking
TTITLE13=Secret Lover
EXTD=
EXTT0=
EXTT1=
EXTT2=
EXTT3=
EXTT4=
EXTT5=
EXTT6=
EXTT7=
EXTT8=
EXTT9=
EXTT10=
EXTT11=
EXTT12=
EXTT13=
PLAYORDER=
